<?xml version="1.0" encoding="utf-8"?>
<!-- Generator: SketchAPI 2019.0.336 <https://api.sketch.io/> -->
<svg version="1.1" xmlns="http://www.w3.org/2000/svg" xmlns:xlink="http://www.w3.org/1999/xlink" xmlns:sketchjs="https://sketch.io/dtd/" viewBox="0 0 331.75 132.36" sketchjs:uid="0" sketchjs:version="2019.0.336">
<path d="M51.22 131.95c-9.836-1.037-14.817-2.547-24-7.276C12.554 117.121 3.059 104.828.538 90.128c-2.084-12.155 1.983-23.716 11.706-33.27C23.509 45.79 35.238 41.025 56.22 38.998c26.563-2.566 40.47-7.173 40.515-13.42.013-1.72.19-1.827.985-.596 1.728 2.674 1.059 9.894-1.5 16.192-1.375 3.384-2.5 6.294-2.5 6.466 0 .473 4.812-2.628 12.03-7.75 7.312-5.19 11.819-7.145 20.47-8.878 3.3-.661 9.008-2.098 12.686-3.194 3.677-1.096 7.727-1.844 9-1.664 2.013.285 1.691.694-2.476 3.143-6.267 3.684-11.458 8.297-13.261 11.783-2.465 4.767-1.617 5.286 2.521 1.547 4.856-4.387 13.26-8.716 22.385-11.53 8.815-2.72 9.451-2.665 5.7.492-3.127 2.631-5.577 6.204-4.792 6.989.234.234 2.277-.228 4.54-1.027 2.263-.798 7.62-1.935 11.906-2.526 9.833-1.357 16.704-4.688 24.525-11.89 3.52-3.242 5.809-4.8 5.366-3.654-.425 1.1-1.69 4.475-2.812 7.5s-3.154 6.993-4.515 8.816-2.317 3.454-2.124 3.623c.193.17 3.33-.06 6.972-.51 8.758-1.084 17.583-4.27 21.063-7.605 3.787-3.628 3.594-1.663-.24 2.426l-3.045 3.25h10.9c12.333 0 15.422-.799 23.2-6.004 5.488-3.67 14.634-7.696 15.506-6.824.253.253-2.345 2.422-5.773 4.82-9.879 6.913-14.762 11.151-14.092 12.235.35.566 2.819.792 5.666.518 4.618-.443 4.834-.374 2.554.82-1.37.719-5.53 2.011-9.244 2.873-7.526 1.745-10.616 3.111-10.616 4.694 0 .652 1.895.928 4.906.715 2.698-.19 4.722-.051 4.498.31-1.232 1.986-11.275 4.103-22.905 4.828-12.155.757-22.714 2.935-23.952 4.939-.66 1.068 14.085 3.816 24.952 4.649 7.031.539 14.12-.12 22.5-2.09 1.774-.417 1.391.025-1.316 1.523-6.062 3.353-17.817 5.887-32.547 7.017-17.936 1.375-28.765 3.268-39.137 6.84-9.631 3.316-29 12.147-29 13.222 0 2.445 32.7 3.977 41.5 1.944l4-.924-2.5 1.9c-8.753 6.653-23.01 10.7-42.5 12.062-32.332 2.26-38.148 2.828-41 4.009-2.91 1.204-2.728 1.296 6 3.046 4.95.992 9.225 1.838 9.5 1.88 1.1.17-6.83 3.191-20.794 7.923-21.272 7.21-35.044 9.484-48.706 8.044zm214.8-85.577c1.822-3.524 4.196-4.669 14.358-6.922 3.995-.886 9.627-3.074 12.75-4.955 6.184-3.724 7.36-2.768 2.988 2.43-4.639 5.512-10.436 8.14-19.851 8.998-4.688.427-9.248 1.398-10.174 2.166-1.566 1.3-1.571 1.185-.07-1.717zm51.702-21.863c0-.26 2.587-1.212 5.75-2.117 3.163-.904 6.65-2.37 7.75-3.256 1.1-.887.45.066-1.446 2.116-2.952 3.194-4.064 3.73-7.75 3.73-2.367 0-4.304-.213-4.304-.473zm-72.039-3.987c1.283-1.366 3.954-3.008 5.936-3.65 1.981-.643 4.953-2.11 6.603-3.263l3-2.093-3.399 4.313c-3.488 4.429-5.083 5.37-11.037 6.515l-3.435.661zm47.164-12.37c1.657-2.653 5.846-4.171 11.513-4.171 2.387 0 6.707-.896 9.6-1.99l5.261-1.99-3.51 3.326c-5.095 4.83-6.828 5.51-15.963 6.272-8.227.686-8.232.685-6.9-1.448z" sketchjs:uid="1" style="fill: #e76709;"/>
<path d="M92.72 35.6c-.24-.033-.803.26-2.031 1.062-6.156 4.023-11.898 5.814-22.75 7.032-5.755.645-9.824 1.33-15.5 2.593-8.803 1.961-17.895 4.638-21.844 6.438C21.5 56.87 12.198 67.336 9.564 76.413c-1.669 5.749-1.622 12.658.125 17.875 3.3 9.858 13.279 18.899 26.594 24.094 5.136 2.004 8.939 2.779 14.656 3.031 6.14.271 11.532-.073 18.03-1.187 9.142-1.567 28.77-7.288 28.439-8.282-.057-.17-.787-.72-1.625-1.218-.839-.498-1.531-1.056-1.531-1.25 0-.813 7.03-2.697 14-3.75 6.608-1 12.902-1.641 28.406-2.844 25.877-2.008 35.762-3.045 37.469-4 .479-.268-1.602-.48-7.625-.719-5.629-.224-10.89-.944-16.812-2.312-5.373-1.242-10.526-3.053-11.875-4.188-1.19-1.001-1.005-1.572.78-2.469 2.137-1.072 21.508-8.603 25.626-9.968 9.495-3.148 22.537-6.292 32.969-7.938 2.264-.357 12.792-1.44 14.53-1.5 1.879-.064-1.779-.674-11.437-1.875-19.541-2.43-21.387-2.915-17.438-4.781 2.92-1.38 6.451-2.326 14.062-3.688 4.416-.79 7.977-1.757 9.875-2.718 1.45-.735 1.466-.895.156-1.344-1.185-.407-1.517-1.013-.906-1.688.66-.729 2.355-1.502 6.344-2.875 4.4-1.514 5.156-1.84 5.78-2.531.446-.492.46-.632.126-.844-.216-.136-.698-.248-1.094-.25-.724-.004-1.562-.608-1.562-1.125 0-.152.394-.677.875-1.156 1.187-1.181 5.67-2.496 11.156-3.281 1.348-.193 1.07-.233-2.375-.375-5.5-.226-6.982.012-12.97 2.031-6.645 2.241-10.718 3.076-15.811 3.281-4.544.183-5.03.045-5.157-1.437l-.09-.97-2.875 1.5c-4.007 2.104-6.487 2.886-9.687 3.062-3.024.167-4.167-.14-4.438-1.219-.427-1.701 2.839-5.312 7.688-8.5 1.523-1 2.73-1.864 2.656-1.937-.17-.17.477-.335-19.719 5.312-9.485 2.653-17.392 4.813-17.562 4.813-.453 0-.377-.582.25-2 .913-2.063.798-2.096-2.719-1.188-4.278 1.105-13.63 4.228-16.594 5.563-1.351.609-2.622 1.125-2.844 1.125-.56 0-.905-.493-1.25-1.781-.675-2.527 1.02-6.846 3.782-9.594.932-.928 2.322-2.092 3.062-2.594.74-.502 1.178-.971 1-1.031-.456-.154-6.016 1.377-9 2.469-5.424 1.985-8.187 3.56-15.25 8.719-10.799 7.887-15.342 9.147-17.28 4.812-.53-1.182-.633-1.84-.626-4.094.01-2.966.297-4.233 2.031-8.687.59-1.516 1.048-2.953 1-3.188-.017-.083-.076-.114-.156-.125z" sketchjs:uid="2" style="fill: #f3a706;"/>
<path d="M205.25 16.7c-.883.823-2.95 2.856-5.344 5.25 2.394-2.394 4.458-4.43 5.344-5.25zm65.656 7.219zm-68.66 1.68zm-41.562 4.125c-1.448.339-3.042.81-4.719 1.375 1.677-.563 3.27-1.037 4.719-1.375zm37.031 5.469c-.877 1.186-1.446 1.97-1.687 2.53.238-.563.8-1.33 1.687-2.53zm-1.812 3.03zm9.593.032zm-8.718.625c.503.074 1.233.098 2.187.094-.954.004-1.686-.02-2.187-.094zm-37.625 11.469c-1.054.197-4.997 1.668-9.532 3.562-10.304 4.306-25.786 9.063-29.469 9.063h-2.312l2.406-4.25c3.305-5.78 3.143-8.1-.312-4.188-3.729 4.222-8.774 7.091-15.625 8.875-6.04 1.573-24.541 3.32-23.531 2.22.318-.348 5.664-1.752 11.875-3.126 11.473-2.537 16.864-4.991 19.562-8.844 2.463-3.516 1.763-3.703-3.938-1.093-4.47 2.046-6.983 2.488-14.281 2.5-4.875.008-10.159-.458-11.75-1.063-4.798-1.824-17.706-2.384-26.625-1.125-20.861 2.945-32.939 10.537-37.906 23.812-6 16.038 2.705 29.925 22.781 36.344 7.438 2.378 12.96 2.376 27.25-.062 6.467-1.104 16.076-3.348 21.344-4.97 5.268-1.62 12.842-3.615 16.844-4.437 8.432-1.732 37.408-5.537 43.281-5.687l4-.094-4-.937c-2.2-.506-7.6-2.068-12-3.5-8.004-2.607-11.366-4.375-8.344-4.375 5.406 0 40.844-14.994 40.844-17.281 0-.562-1.845-.648-4.5-.25-6.97 1.045-6.384.222 6-8.375 6.127-4.254 14.746-12.086 12-10.906-.55.236-3.503 1.614-6.562 3.093-6.152 2.975-25.61 8.392-26.594 7.407-.344-.344 1.717-3.168 4.562-6.282s4.989-5.823 4.781-6.03c-.025-.027-.1-.029-.25 0zm88.156.219c.133.011.242.042.312.062a.952.952 0 0 0-.312-.062zm-5.56 3.09a25.47 25.47 0 0 1-2.938.812c1.095-.241 2.07-.505 2.938-.812zm-35.72 5.03c-2.187.59-3.732 1.235-4.468 1.876.732-.639 2.297-1.284 4.469-1.875zm-4.812 2.25c-.038.062-.017.12.031.188-.039-.063-.066-.13-.031-.187zm47.281 2.438c.013.019.037.037.031.063.008-.037-.002-.042-.031-.063zm-.125.282c-.174.166-.499.397-.969.687.484-.298.792-.519.969-.687zm-9.781 4.625c-1.582.478-3.346.91-5.313 1.312 1.969-.402 3.729-.833 5.313-1.312zm-35.656 4.968c-3.827.444-7.29.92-10.594 1.5 3.296-.576 6.778-1.058 10.594-1.5zm-20.71 25.91zm-10.06 3.88zm-7.219 1.938zm-5.281.937c-2.023.294-4.281.555-6.781.813 2.498-.256 4.76-.52 6.78-.813zm-47.66 8.03c3.383.539 6.545 1.14 8.125 1.532-1.577-.388-4.742-.993-8.125-1.532zm-89.688 8.282zm61.6 6.81zm-5.16 1.22zm-7.656 1.343z" sketchjs:uid="3" style="fill: #fcea01;"/>
</svg>