<?xml version="1.0" encoding="utf-8"?>
<!-- Generator: SketchAPI 2019.0.336 <https://api.sketch.io/> -->
<svg version="1.1" xmlns="http://www.w3.org/2000/svg" xmlns:xlink="http://www.w3.org/1999/xlink" xmlns:sketchjs="https://sketch.io/dtd/" style="fill-rule: evenodd;" id="svg2" width="647.902" height="800" viewBox="0 0 4478.0376 6506.852" sketchjs:uid="0" sketchjs:version="2019.0.336">
<g id="Layer 1" transform="matrix(0.73213,0,0,0.73242,-903.238,66.58)" sketchjs:uid="1">
	<g id="g10" sketchjs:uid="2">
		<g id="g4971" transform="matrix(1.24971,0,0,1.24971,-173.058,-2195.79)" sketchjs:uid="3">
			<path id="path26" d="M3411.983 3066.2c216 67 23 404-194 351-121-29-421-149-425 144 65-38 120-43 152-33 46 15 130 87 177 108-18 38-123 105-129 157-102-110-172-116-191-130-58-43-217-10-291-21-237-35-425-372-319-606 10 37 93 78 121 106 24 25 124 65 172 42-120-143-164-211-154-339 15-170 130-362 209-499 201-350-171-623-467-531-166 51-427 160-575 57-214-149-316-219-466-70 103 8 175 15 224 97 25 41 142 242 239 253-119 81-270 276-391 397-57 57-130 124-219 132-86 8-124-35-177-74-37 170 75 436 258 448 288 20 371-145 457-215-6 33-268 323-300 360-72 80-207 332-419 168-34 160 7 307 181 383 200 87 518-167 626-324-63 134-309 434-362 490-63 68-163 171-230 218-86 60-161 12-198-38-23 206 40 410 215 435 116 17 231-9 349-100 8-6 303-368 357-421-63 129-335 540-425 644-67 77-224 221-319 285-43 29-137-1-186-62 1 168 19 319 146 405 152 102 370 48 536-119 234-235 515-738 587-844-54 199-374 856-485 1006-103 139-334 312-465 420-52 43-160 44-318-43 31 573 663 454 828 286 464-472 598-776 798-1211-23 231-53 314-104 527-24 101-87 277-134 362-28 50-133 166-206 236 573 61 902-139 924-885 35 74 232 511 213 577-132 182-271 381-382 460-180 127-293 61-471 31 36 115 235 281 410 271-42 87-33 368-27 474 6 110 140 380 190 459-15-301 133-497 333-673 37 189 176 451 255 673 64 178 37 507-247 522-79 4-175-67-205-116-54-88 29-153 41-224 5-26-226-9-305 71-103 104-132 181-112 291-285-159-772-498-1167-198-338 256-428 645-178 900-40-134-41-433 341-375 395 59 477 381 993 460 409 62 633-37 953-416 13 128-133 341-214 440-10 12 180 24 218-1 9 37 98 123 127 149 106-100 98-147 112-151 43 21 123 20 221-24-166-117-234-332-219-413 220 252 378 432 776 432 139 0 325-60 444-103 59-21 290-167 335-211 168-167 498-328 663-74 36 56 56 116 49 234 73-226 90-312 22-572-41-157-362-377-575-377-205-8-348 59-524 143-121 57-102 131-241 131 60-186 23-208-35-282-89-113-248-100-399-38 0 6 121 80 115 149-6 78-62 131-192 148-142 19-330-113-343-240-41-400 262-624 262-959 166 165 352 414 395 620 46-106 86-258 86-431 0-152 49-360-97-428 184 1 512-130 596-281-392 0-452-58-619-168-128-85-176-219-269-311 79-219 173-459 210-688 24 309 137 788 436 930 106 50 433 57 480-62-273-116-408-918-452-1091 21 109 318 710 447 920 150 243 435 533 739 533 197 0 461-264 382-515-105 173-343 87-386 45-294-286-587-771-723-1107 124 206 394 670 638 749 168 55 541-94 492-444-31 9-193 112-260 53-311-271-559-708-683-903l420 414c64 63 159 78 259 50 153-41 288-223 265-401 3 10-114 102-194 47-175-122-625-679-689-825 7-5 324 422 560 433 159 7 400-210 316-401-318 229-655-451-813-645 120 76 382 318 580 306 139-9 340-207 264-382-211 112-317-47-442-171-92-92-207-240-319-345 76-73 70-59 147-138 57-59 209-193 313-188-309-224-534 111-713 127-181 15-647-359-849 12-56 102-44 237-30 285 38 135 149 289 208 408 44 91 68 210 68 321 0 88-51 158-85 222 92-14 97-39 145-94 30-35 82-83 109-159 75 156 144 423-113 669-100 96-207 53-359 29-65-11-163 29-247 60-39 14-105 106-105 100-105-216 96-503 142-652 88-284-3-355-105-480 52 31 81 22 139 22 55 0 108-113 122-156-165 83-204-3-314-162-42-60-162-141-217-156 0 0-256.861-119.868-394.315-120.628-140.254-.776-403.685 118.628-403.685 118.628l5 29 72 40 17 66-17 57-67 58 118 118 294 101 69 94-7 138-60 108-99 65z" sketchjs:uid="4" style="fill: rgb(0, 0, 0);"/>
			<path id="path22" d="M4684.983 6271.2l199 121 221 108 159 48 139-30 184-178 130-108h147l103 111 18 106-9 27h-55l-47-34-17 47-40 42-69 27-45-12-38-38-4 29-67 72 242-63 179-66 120-8 125 85 34 127-17 147-31 41-51-156-33-53-24-3-3 70-41 60-67 46h-87l-68-65-24-60-84 63-173 65 113 24 274 12 135 72 61 130-21 151-102 132-17-161-39-66-30 76-39 46-89 16-89-52-46-99 17-82-33 10-109-4-233-74-63 38-46 52-12 120-30 51-64 22-56-6-59-55 42 189h-27l-72-43-103-105-27-103 33-72 202-178 24-75-168-88-190-60-200-3-33-184-102-133 292-66z" sketchjs:uid="5" style="fill: rgb(186, 43, 26);"/>
			<path id="path24" d="M2612.983 6303.2l-174-7-282 192-181 80-156 21-130-72-119-203-95-76-141 15-58 79-36 120 11 68 40-25 40-51 11 66 39 61 29 15 102-40 7 40 65 65 90 29-94 21-492-199-94 4-94 98-36 94 4 202 43 44 69-145 36 91 61 36 76-18 55-55 7-43 101 47 145 22-127 47-112 18-123 7-79 109-33 130 76 166 72 73 11-178 65 76 134-25 58-80-11-94 348-134 155 40-72 102 11 76 83 43h50l62-29 25 25 11 87-7 69 80-53 68-136-31-181-160-178 170-121 209-76 185-29 33-330z" sketchjs:uid="6" style="fill: rgb(186, 43, 26);"/>
			<path id="path28" d="M4560.983 6500.2l-8-65c14 27 44 74 75 84 35 10 81 19 117 25 22 4-19 11-25 12-23 5-155-24-159-56z" sketchjs:uid="7" style="fill: rgb(0, 0, 0);"/>
			<path id="path30" d="M4520.983 6640.2l12 32c94-23 304 25 345 47 69 37 191 86 191 109 0 30-82 98-148 151-86 70-146 150-86 267 26 50 235 212 293 159-61-14-83-117-84-166 38 36 119 48 177-5s32-120 51-178c6-19 23-37 39-52 51-51 246 78 379 66-58 87 90 218 136 218 88 0 143-24 176-119 25 68 32 150 20 223 87-57 176-188 176-262 0-119-62-228-168-254-169-43-344-27-520-48 21 3-40 1-16 9 35 11 103 33 194 36 126 4 224 3 325 34 68 21 235 185 48 425 0-74 3-146-33-184-32-34-16-117 24-149-74 13-61 99-74 144-20 64-60 103-120 101-37-1-102-43-116-78-19-46-24-138 25-172-56 9-70 41-110 39-54-4-250-57-304-77-49-19-64 15-93 55-20 27-73 37-90-6-22 51 62 41 45 141-8 52-26 70-62 82-68 23-67 2-109-42-34-35-51-107-150-89 34 21 92 58 97 81 12 58 54 120 35 185-55-1-165-148-180-196-42-139 220-204 240-311 2-15 16-44 7-59-21-33-183-116-370-159-49-11-166-3-202 2z" sketchjs:uid="8" style="fill: rgb(0, 0, 0);"/>
			<path id="path32" d="M5362.983 6654.2l-47-18c30 0 53-5 79-6 191-6 312-58 501-133 101-39 241-69 335 3 104 80 126 346 1 403-17-74-48-217-81-217 4 72-86 165-159 168-76 4-130-55-150-112-45 58-209 109-278 109-92 0-153-64-215-97 54 1 92 22 127 42 111 64 362-41 375-146 15 45 17 85 58 127 82 82 144 51 202-26 14-19 18-76 15-111-3-21-11-36-11-60 0-15 5-27 15-33 14 24-2 79 28 98 42 29 74 151 98 188 12-40 18-109 20-132 10-159-142-255-322-192-150 54-324 152-482 156-34 0-90-4-109-11z" sketchjs:uid="9" style="fill: rgb(0, 0, 0);"/>
			<path id="path34" d="M4704.983 6269.2l-30 18c127 91 491 304 647 281 94-14 161-92 224-158 49-52 104-113 162-147 96-56 255 31 259 206-45 9-56-9-75-30-41-45-90-63-52-139-22 7-31 9-34 61-2 41 51 70 48 98-4 38-64 103-129 82-32-11-56-68-99-62 22 9 34 32 28 52-11 37-73 63-94 68-42 10-144 34-201 43 249 3 289-50 316-109 16 30 58 49 102 34 47-16 84-58 110-103 11 30 99 43 107-10 21-134-65-257-197-257-157 0-235 131-320 227-151 172-320 92-480-5-113-68-213-99-292-150z" sketchjs:uid="10" style="fill: rgb(0, 0, 0);"/>
			<path id="path38" d="M2588.983 6455.2l-3-53c-14 40-54 84-88 104-20 11-76 6-97-9 2 8 24 27 28 30 22 11 56 11 82 2 23-8 76-74 78-74z" sketchjs:uid="11" style="fill: rgb(0, 0, 0);"/>
			<path id="path46" d="M3344.983 2947.2c-173-114-405 12-573-18-178-33-346-129-210-370 98 158 226 176 455 178 165 1 329 26 442 117-10 33-60 80-114 93z" sketchjs:uid="12" style="fill: rgb(0, 0, 0);"/>
			<path id="path48" d="M2562.983 2603.2c-84 146 31 247 185 291 151 43 243-16 438-17 77 0 158 17 181 35 45-16 69-53 65-56-51-39-156-65-208-75-191-41-233-9-378-21-191-17-224-66-283-157z" sketchjs:uid="13" style="fill: rgb(186, 43, 26);"/>
			<path id="path50" d="M3169.983 2409.2c17 49 95 103 165 127 71 24 166 37 239 82 133 81 64 304-47 393-78 63-293 86-447 167-8 4-19-15-21-20-8-22 50-100 68-121 89-109 338-89 336-224-1-99-276-103-331-156-79-76-189-166-210-28-48-90-59-83-77-123-31-71-26-131-5-173 29-55 76-64 138-74 28-56 83-92 133-98 48-6 107 34 121 84 14 45 12 102-62 164z" sketchjs:uid="14" style="fill: rgb(0, 0, 0);"/>
			<path id="path52" d="M3083.983 2377.2c172 22 161-178 27-178-62 0-84 58-104 97-41 1-156-7-152 119 2 45 34 110 54 132 84-101 180 50 253 87 36 18 105 34 175 49 108 25 201 91 114 211-57 78-271 59-338 195-40 81 12 36 77 17 231-67 432-125 423-357-5-137-298-177-356-217-38-27-176-137-173-155z" sketchjs:uid="15" style="fill: rgb(186, 43, 26);"/>
			<path id="path54" d="M3519.983 2310.2l-150-16-124-6c-20 64-26 175 48 209 48 22 142 25 181-25 33-43 41-106 45-162z" sketchjs:uid="16" style="fill: rgb(0, 0, 0);"/>
			<path id="path56" d="M3490.983 2311.2l-118-17-102-5c-1 55-39 171 66 192 142 29 158-110 154-170z" sketchjs:uid="17" style="fill: rgb(255, 255, 255);"/>
			<path id="path58" d="M3413.983 2308.2l-42-15-30-1c-25 21-39 68-31 95 8 24 30 48 60 46 37-1 61-51 54-47-76 46-113-76-11-78z" sketchjs:uid="18" style="fill: rgb(0, 0, 0);"/>
			<path id="path60" d="M3239.983 2283.2c138 1 265 20 419 25 3 6 1 11-8 12-40 9-180 1-198-2-41-6-174-12-216-16-6-1 2-18 3-19z" sketchjs:uid="19" style="fill: rgb(0, 0, 0);"/>
			<path id="path62" d="M2476.983 6303.2l-38-22c-178 128-593 446-762 178-76-120-80-246-252-241-173 6-205 182-185 324 28 2 69-30 82-63 5 35 24 97 72 116 35 14 72-27 103-26 36 113 188 147 276 82-80 11-140 35-221-46-34-34-30-39-22-89-38 28-112 55-122 51-27-13-75-53-55-116 9-28 136-66 52-161 39 87-117 134-134 212-19-28-10-119 34-181 22-30 58-48 90-56 128-31 173 99 243 212 49 79 115 133 197 132 224-3 481-193 642-306z" sketchjs:uid="20" style="fill: rgb(0, 0, 0);"/>
			<path id="path64" d="M1537.983 6870.2c41-11 137-93 174-108-45 24-230 107-269 102-68-8-211-22-206-96 3-43-28-75-64-75 56 34 32 122 5 173s-94 42-133 20c-119-70 70-258-83-268 47 40 24 111 20 131-7 37-51 118-81 149-40-46-41-355 146-375 84-8 359 149 434 173 30 9 57 15 82 19 96 13 169-45 205-61-61 15-146 32-223 14-87-21-175-73-234-105-159-87-229-92-244-92-98-5-197 114-212 212-11 69-35 231 36 272 16 10 25 21 43 22-6-74 32-125 45-144 10 50 30 69 53 90 35 31 149 24 197-89 20 16 101 49 177 52 36 1 102-8 132-16z" sketchjs:uid="21" style="fill: rgb(0, 0, 0);"/>
			<path id="path66" d="M1171.983 7458.2c-18-19-29-162-11-152 21 34 37 43 74 43 77 0 193-48 189-145-1-15-8-44 5-59 44-32 189-96 222-104 66-16 154-50 198 21-53 79-71 149 34 199 57 28 128-9 150-21 22 21 14 169 14 184 42-5 78-36 98-58 100-112 75-224 57-307-10-46-59-88-90-123-30-35-51-45-70-70 48-72 386-242 559-186l-15-92c-69 25-227 53-285 74-51 19-304 141-301 190 3 54 142 156 163 222 30 95 23 196-44 270-19 20-42 41-50 40 4-54 7-73 1-113-6-33-19-45-19-69 1-35 21-63 37-94-46 21-45 50-63 87-19 40-35 42-67 43-69 4-161-56-79-149 25-29 53-80 54-116-9 14-38 66-94 24-26-20-56-25-104-12-103 27-230 69-328 119-45 24-46-72-112-44 47 25 64 66 72 80 35 63 8 87-13 115-27 35-145 65-169 21-17-32-20-65-19-110 3-59-22-113-77-99 38 23 50 51 50 102 0 55-9 160-23 199-60-47-102-145-102-192 0-68 68-220 137-217 94 5 153-17 240-35 46-10 176-61 215-100-55 19-265 90-327 96-122 11-210-2-251 92-24 54-64 146-40 225 13 44 113 218 184 221z" sketchjs:uid="22" style="fill: rgb(0, 0, 0);"/>
		</g>
	</g>
</g>
</svg>