<?xml version="1.0" encoding="utf-8"?>
<!-- Generator: SketchAPI 2019.0.336 <https://api.sketch.io/> -->
<svg version="1.1" xmlns="http://www.w3.org/2000/svg" xmlns:xlink="http://www.w3.org/1999/xlink" xmlns:sketchjs="https://sketch.io/dtd/" viewBox="0 0 250 250" sketchjs:uid="0" sketchjs:version="2019.0.336">
<path d="M0 0h250v250H0z" sketchjs:uid="1" style="fill: #efd905;"/>
<path d="M167.154 211.98c-1.72 2.06-7.91 1.63-11.14 1.34-3.33-.3-5.07-3.54-3.82-3.87 1.23-.32 2.15-1.64 2.06-2.86-.09-1.31 4.34-1.6 5.44-1.42 1.01.16 1.71 3.01 2.91 4.56 1.25 1.62 3.18 1.97 4.55 2.25zM54.564 74.5c2.03 5.89 3.87 11.12 5.1 15.02.82-1.35 1.27-2.95 2.1-4.31 1.38 5 3.28 10.15 5.46 12.59.41-1.41 1.19-3.32 1.6-4.73 1.12 4.32 3.1 8.76 5.63 11.05.12-2.58.16-4.76.28-7.34 1.14 4.49 3.08 9.51 4.67 12.42.88-2.58 1.33-5.34 1.86-8.63.85 4.11 3.19 9.22 4.83 12.1.97-2.59 1.38-4.84 1.62-7.65.47 1.76 2.29 3.91 2.76 5.67l18.41-2.73-4.55-25.43-14.77-4.51c-5.59-2.52-15.39-9.42-19.43-13.2-4.1-3.83-2.32-8.78-1.67-10.84.65-2.08 2.52-1.61 3.96-2.46 1.5-.88 2.14-1.66 2.91-2.65.73-.94-.79-1.43-1.5-2.29-.7-.85-2.64-6.23-6.06-4.91-3.53 1.37-11.32 1.94-11.68-2.42-.36-4.27-6.043 2.01-7.453 3.06-1.41 1.06-1.124 3.07-.243 4.04l6.166 28.15z" sketchjs:uid="2" style="stroke: #efd905; fill-rule: evenodd; stroke-linejoin: round; color: #000;"/>
<path d="M76.894 181.39l-2.61 20.35c-3.3 3.23 2.09 3.76 3.16 5.1 1.08 1.34 3.11 1 6.45.07 3.26-.9 10.01-2.78 16.55-3.18 6.53-.39 14.06-1.72 18.57-3.35-7.03-1.73-.42-1.1 6.02-4.48-7.42-1.74 2.45-1.96 9.6-5.6-10.54-1.21.21-1.28 8.73-6.99-14.44-.69-1.65-2.67 5.21-6.09-9.18-1.09-5.04-.86.75-5.5-25.95-5.48-.29-20.67 2.32-21.29 2.62-.62 2.57.91 2.15-4.32.63 8.49 1.65 12.77 3.38 16.92.69-.62 1.09-1.16 2.16-2.03.54 3.55 3.37 8.47 6.84 12.98.67-1.33.81-3.75 1.01-5.88 0 0 5.65 5.61 13.16 11.85 7.57 6.28-9.26 30.61-15.12 32.33-5.83 1.7-8.79 1.62-11.62 0-2.88-1.65-4.72.57-4.52 1.75.24 1.39.24 2.17-.01 3.37-.25 1.18-1.14 2.9-.38 4.03.76 1.12 3.47 1.35 5.08.23 2.42-1.38 3.62-2.25 6.38-2.67-2.68.32-8.29 2.93-8.83 4.92-.56 2.07 6.91 5.34 8.61 4.89 1.86-.49 8.77-7.53 8.7-7.52-.07 0-6.55 5.29-6.43 6.97s3.75 3.2 5.89 3.39 2.75-1.58 6.22-4.38c3.48-2.8 7.72-4.3 9.6-9.08 1.82-4.64 8.78-8.62 12.89-11.55-6.97.68-1.25-1.88 5.04-8.9-9.42 2.27-2.27-.62 3.49-7.88-9.65 2.93-1.95-.85 2.5-11.9-11.92 8.24-2.12-.44 1.11-8.7-8.97 5.69-5.25 2.42-3.26-4.91-14.37 10.85-14.4-6.06-19.29-17.86 11.31 7.06 22.76 6.35 24.97-9.68 2.2-15.95-14.71-41.25-18.15-52.95-3.51-11.92-2.03-13.21-.35-13.74 1.67-.53 11.03-3.61 15.33-7.58 4.34-4.01 8.19-9.07 5.37-20.79-1.67 11.32-14.68 18.29-19.91 22.82 5.29-4.58 18.28-11.37 20-22.73.46-3.07-.09-12.7-7.39-13.17 2.29 2.04 2.7 8.26.91 11.65 1.52-3.13 1.32-9.48-.97-11.7-2.25-2.17-4.34-2.99-7.49-3.13-3.16-.13-2.34 1.82.02 3 2.94 1.47 4.03 2.95 3.52 7.81-.5 4.77-7.7 6.42-13.8 14.79s-5.87 22.64-2.99 32.95c2.9 10.42 11.12 23.5 14.3 31.45 3.14 7.84 6.14 15.71 3.46 22.54-2.63 6.72-8.54 4.66-12.09 2.1-3.5-2.52-7.02-5.17-11.39-14.6-4.31-9.31-12.87-20.99-16.26-26.49-3.36-5.45-10.34-15.44-13.95-15.92-34.63 1.34-60.87 29.13-68.61 36.14-7.94 7.17-14.64 13.02-20.38 9.8-4.46-2.51-8.2-3.6-9.12-4.83-1.243-1.63-6.045-1.08-7.807 1.04-1.762 2.11-1.234 6.25-.881 7.31.352 1.06 3.171 3.26 4.229 2.56 1.057-.71 4.14-1.33 5.899-1.33-7.266 1.14-10.25 2.66-9.952 3.97.317 1.39 3.612 5.37 5.022 6.61 1.409 1.23 3.083 1.58 3.96.17.89-1.41 4.85-4.14 7.32-5.99-4.8 3.86-5.35 4.41-5.99 6.43-.61 1.92 4.22 4.14 5.81 4.85 1.59.7 2.13.47 5.29-1.68 3.11-2.11 3.3.14 8.19-2.11 4.82-2.22 8.19-3.88 19.38-1.59-.82-3.75-12.74-5.22 7.23-5.11-5-2.49-5.41-4.37 8.28-4.14-8.14-4.96-1.82-3.31 9.16-3.34-6.75-3.09-15.8-5.29 8.02-3.88 0 0-1.32-1.85-4.14-3.26s3.25-1.5 5.37-1.85c2.11-.34 3.36-.45 5.93-3.01 2.61-2.53-.97-5.46-1.74-6.28.62.79 4.21 4.12 1.87 6.23-2.3 2.06-1.72 1.52-3.59 2.88 2.97 1.63 4.93 1.68 7.22 2.03s4.1.64 5.51-.6c1.41-1.23 2.31-1.03 3.36-1.73-1.04.69-2.55 1.42-3.32 1.89 1.07 2.67 8.07 4.81 11.36 9.49-3.22-4.61-2.53-2.28-4.26-4.24-10.47-.67-32.04 5.56-39.43 23.16 1.37-.08 2.04.28 3.76-.51-1.62 3.2-2.2 8.36-1.33 12.43 1.38-1.53 1.94-3.24 3.72-4.29 0 0 1.01 7.45 2.81 7.88 1.82.43.94 1.34.39 2.54-.69 1.53-10.31 16.98-20.47 17.33-9.71.34-11.15 1.71-11.15-1.06 0-2.24.57-4.43.57-5.55s-.33-2.79-1.45-2.29-3.35-.69-5.06-1.01c-1.71-.33-3.62.97-3.62 3.22zm74.23-56.36c.78 1.46 1.93 7.71 2.56 10.33" sketchjs:uid="3" style="stroke: #efd905; fill-rule: evenodd; stroke-linejoin: round; color: #000;"/>
<path d="M163.864 95.97c-7.52-5.15-10.03-8.44-16.68-9.73 3.06 5.4 4.14 10.67 4.34 16.82-2.87-4.11-6.98-7.35-12.09-10.22 1.08 5.94 1.67 12.88-1.49 17.7-1.5-3.78-2.99-8.14-5.61-11.22 0 2.2-.12 4.28-.25 5.49-9.01-11.43-21.96-10.14-36.88 1.12-1.08-7.46.34-16.04 1.87-22-3.28 3.06-4.44 5.24-7.22 9.54-1.21-9.96 1.7-21.66 7.6-30.62-2.66 2.11-6.07 5.59-8.48 6.94 1.42-6.72 5.2-13.83 9.6-19.18-2.18.58-6.1 3.15-7.66 3.98 1.31-5.23 7.22-13.7 12.14-18.19-2.16.17-5.94 2.08-7.72 2.74 3.64-4.48 8.91-9.84 13.67-13.33-2.06.17-3.12.8-5.44-.15 7.23-5.13 14.74-10.57 23.8-12.22 9.15-1.67 8.85-1.35 15.3 4.5l-10.41 21.97 2.56 16.13c.04 5.6 6.08 9.64 15.46 9.64-.59 1.84-3.2 3.64-4.85 4.24 4.48 1.91 8.47 2.32 12.83 3.74-2.62.91-3.24 2.45-7.85 2.61 5.79 5.24 13.03 13.47 13.46 19.7zM76.184 198.84c7.08 5.94 8.74 7.41 15.86 7.03 7.11-.38 8.45-.62 5.52-4.72-2.98-4.15-13.79-4.79-17.21-9.23-3.45-4.48-3.6-8.42-3.6-9.54 0-1.13-3.6-2.08-4.49-.2-.91 1.92-4.29 1.53-4.33 3.85s-1.04 5.31 3.23 6.18l5.02 6.63z" sketchjs:uid="4" style="stroke: #efd905; fill-rule: evenodd; stroke-linejoin: round; color: #000;"/>
<path d="M75.744 201.04c-2.81 2.01-3.19 1.26-4.39.46-1.2-.81-2.94-3.19-2.36-5.14.57-1.96-1.19-4.14.88-4.06 1.68.07 5.74-.05 5.82-1.16.14.17.08 1.89.06 2.18-.13 1.99 2.88 5.65-.01 7.72zM65.254 129.79c-7.05 2.29-10.2-1.52-12.49-3.9-2.288-2.38.22-4.55 1.54-5.61s4.64.57 6.05.31c1.41-.27 2.42-1.3 3.39.02s-.02 3.96-.02 5.28.82 2.49 1.53 3.9zM49.942 60.1l4.252-6.12c-2.61-1.14-4.186-6.22-5.762-7.53s-4.372 4.58-4.372 4.58c.176 2.53 1.489 6.54 5.882 9.07z" sketchjs:uid="5" style="stroke: #efd905; fill-rule: evenodd; stroke-linejoin: round; color: #000;"/>
<path d="M54.654 73.53c-6.254-6.25-8.094-12.42-4.883-17.84 3.253-5.49 9.153-8.42 10.513-9.23-1.45.87-2.97 1.54-4.2 2.51s-.39-1.16-.47-4.02-.17-6.75 2.15-7.19c2.33-.44 10.79 2.72 8.68 4.36-2.15 1.68-5.14 8.13-5.54 14.83-.41 6.93-2.37 13.85-6.25 16.58z" sketchjs:uid="6" style="stroke: #efd905; fill-rule: evenodd; stroke-linejoin: round; color: #000;"/>
<path d="M53.234 157.3c-2.04-5.89-.52-9.1 1.15-11.65 1.01.71 3.43 2.27 3.98 3.47-1.95 1.06-4.96 4.51-5.13 8.18zM38.76 146.14c1.791-5.97 3.874-7.65 7.072-8.55.402 1.16.927 3.44.493 4.74-2.197.16-4.799 1.17-7.565 3.81zM35.78 124.85c2.742-2.46 8.459-2.04 11.162-.63-.157 1.42-1.551 3.23-3.136 3.55-1.579-1.53-4.213-2.61-8.026-2.92zM52.344 114.72c6.53.12 7.98 2.33 9.23 5.93-1.08.58-3.05.31-4.38.26.38-2.76-1.45-4.06-4.85-6.19zM165.224 237.59c-3.84-4.7-2.56-8.02-1.24-9.43 1.15.44 2.12.88 3.17 2.03-1.23 1.67-1.93 3.96-1.93 7.4zM148.334 232.04c-.42-6.05 3.15-7.94 5.04-8.33.69 1.02 1.22 1.94 1.43 3.48-1.97.66-4.49 2.04-6.47 4.85zM139.014 218.14c4.09-4.71 7.7-4.2 10.74-4.03-.11 1.23-.09 2.63-.64 4.32-1.95-.73-6.79-1.24-10.1-.29zM146.564 204.77c6.21-2.33 8.67-.28 11.17 1.46-.73.99-2.06 1.49-3.14 2.03-1.29-1.64-2.78-3.63-8.03-3.49zM73.134 213.28c-1.38-6.08-.06-7.28 1.89-9.62.92.82 1.62 1.28 2.03 2.54-2.35.88-2.81 3.42-3.92 7.08zM62.314 198.69c3.34-5.26 5.12-5.17 8.15-5.45.07 1.23.24 2.06-.36 3.24-2.29-1.05-4.42.42-7.79 2.21zM63.984 180.57c6.09-1.33 7.98.09 10.31 2.05-.47 1.18-2.53 2.23-3.79 2.64-.86-2.37-2.87-3.55-6.52-4.69zM80.974 172.78c5.06 3.65 4.59 5.51 4.68 8.55-1.22 0-3.03.12-4.17-.56.57-2.12 1.08-4.51-.51-7.99zM74.694 38.39c.84 3.03 1.25 7.78.03 9.21-1-.21-2.34-1.65-2.74-2.92.79-.74 2.63-2.28 2.71-6.29zM62.984 31.08c3.62 3.69 3.74 7.36 2.66 9.62-1.39.04-2.82-.46-3.7-1.27 1.25-2.3 1.21-4.97 1.04-8.35zM44.302 34.69c6.533.12 8.242 1.89 9.492 5.5-.46.75-2.26 2.24-3.586 2.19-.062-2.5-2.507-5.55-5.906-7.69zM35.316 46.59c5.475-1.59 9.887-1.57 12.3 1.39-.818.91-1.105 2.45-2.369 2.85-2.085-2.9-5.037-3.66-9.931-4.24z" sketchjs:uid="7" style="fill: #b20f18; stroke: #000; fill-rule: evenodd; color: #000;"/>
<path d="M120.624 24.94c-18.03 22.51-4.66 34.42 8.76 31.31 13.43-3.11 10.33.77 13.41 1.32 3.38.6 5.88-1.14 7.36-1.51 1.5-.37.67-2.13-1.07-3.01-1.74-.87-6.39-3.1-9.65-3.87-3.52-.84-6.09.47-4.89-3.45 1.2-3.91 4.89-9.7 7.14-11.44 2.24-1.75 3.6-1.92 5.47.08 1.87 1.99 4.49 7.06 8.6 4.7 4.11-2.37 5.64-6.14 4.25-7.64-1.58-1.7-2.83-3.19-.41-.79 3.41 3.39 2.83-2.11-.51-4.86-2.02-1.66-6.56-3.83-9.18-5.57-2.56-1.71-6.35-3.87-12.21-3.74-4.73.1-3.43 1.83-7.6-2.12-4.3-4.07-17.82-2.99-9.47 10.59z" sketchjs:uid="8" style="stroke: #efd905; fill-rule: evenodd; stroke-linejoin: round; color: #000;"/>
<path d="M147.654 53.37l1.55-5.11-4.77 3.22.1-3.13-3 2.38 6.12 2.64zM147.224 32.76l-.15 6.69 3.2-3.62-.21 6 3.25-3.87-6.09-5.2z" sketchjs:uid="9" style="fill: #b20f18; stroke: #000; fill-rule: evenodd; color: #000;"/>
<path d="M154.314 145.76s.17-7.92-.21-9.29c-.39-1.44-1.56-2.94-3.02-3.33-1.65-.44-6.43-1.45-5.64-.39s4.99 3.28 4.99 4.96c0 1.67-.24 4.83.33 6.65.58 1.84 2.94 1.49 3.55 1.4z" sketchjs:uid="10" style="stroke: #efd905; fill-rule: evenodd; stroke-linejoin: round; color: #000;"/>
<path d="M142.134 27.12c-1.22-.13-1.58.03-2.39-.36-1.01-.49-1.12-.75-1.22-2.08-.11-1.33 1.84-2.67.08-2.67-1.69 0-1.94-1.21-.41-1.18 1.52.03 4.84 1.44 5.75 1.8.89.35.92 1.42-.22 1-1.16-.42-1.29-.79-2.32-1.02s-1.92.93-.52 1.36c1.3.39 1.23 1.52-.43.82-1.63-.69-.39 1.27.49 1.43.88.17.93.21 1.65.24.73.02.76.8-.46.66z" sketchjs:uid="11" style="fill: #efd905; fill-rule: evenodd; color: #000;"/>
<path d="M124.594 16.43c1.3.55 3.39 2.52 4.69 3.82" sketchjs:uid="12" style="fill: none; stroke: #efd905; stroke-linecap: round; color: #000;"/>
<path d="M133.354 46.35c11.25-.21 17.66.78 22.16 3.34 5.03 2.86 12.92 5.16 17.19 3.77 4.59-1.5 3.91-4.84 3.47-7.22s-1.77-2.41-2.72-1.42c-1.15 1.22-8.89 4.02-14.98 1.8-6.94-2.53-8.69-4.49-24.01-3.78-.66.7-.89 2.11-1.11 3.51z" sketchjs:uid="13" style="fill: #b20f18; stroke: #000; fill-rule: evenodd; color: #000;"/>
</svg>