<?xml version="1.0" encoding="utf-8"?>
<!-- Generator: SketchAPI 2019.0.336 <https://api.sketch.io/> -->
<svg version="1.1" xmlns="http://www.w3.org/2000/svg" xmlns:xlink="http://www.w3.org/1999/xlink" xmlns:sketchjs="https://sketch.io/dtd/" viewBox="0 0 367.291 323.996" sketchjs:uid="0" sketchjs:version="2019.0.336">
<path d="M279.36 129s6.771 34.46 33.618 16.285c34.78-23.547 46.609-19.636 50.464-16.235 3.854 3.401.72 11.187-.888 14.883-7.59 17.471-38.28 44.744-51.913 58.827-10.236 10.575-23.309 21.95-47.892-8.692" sketchjs:uid="1" style="fill: #8B5D3B;"/>
<path d="M261.19 195.32a2.002 2.002 0 0 1 3.12-2.506c11.75 14.656 20.513 19.104 27.028 19.07 6.944.049 12.611-5.057 17.866-10.518 6.882-7.106 17.938-17.421 28.218-28.136 10.271-10.682 19.751-21.864 23.297-30.095 1.032-2.329 2.592-6.337 2.564-9.257-.011-1.598-.389-2.646-1.164-3.33-1.072-.927-2.989-2.053-6.898-2.068-6.716-.03-19.289 3.655-41.121 18.458-5.825 3.941-10.937 5.635-15.429 5.637-4.254.008-7.838-1.558-10.629-3.813-2.8-2.258-4.874-5.167-6.434-8.019-3.106-5.707-4.183-11.249-4.21-11.36a2 2 0 1 1 3.924-.771c.004 0 .131.668.456 1.841a42.71 42.71 0 0 0 1.57 4.618c1.461 3.624 3.847 7.897 7.199 10.572 2.244 1.793 4.843 2.924 8.123 2.932 3.46 0 7.803-1.309 13.186-4.95 22.171-14.989 35.231-19.119 43.364-19.148 4.712-.015 7.779 1.495 9.545 3.071 1.927 1.7 2.53 4.113 2.52 6.329-.027 4.137-1.846 8.374-2.896 10.85-4.042 9.238-13.702 20.425-24.081 31.271-10.373 10.811-21.477 21.171-28.229 28.149-5.31 5.45-11.716 11.686-20.741 11.734-8.47-.03-18.11-5.56-30.16-20.56z" sketchjs:uid="2" style="fill: #010101;"/>
<path d="M258.58 85.103c.158-2.017.264-4.048.264-6.104 0-42.524-34.476-76.999-77-76.999s-77 34.474-77 76.999c0 2.057.104 4.089.263 6.104-27.325 22.289-44.774 56.225-44.761 94.237v.086c.023 67.102 54.439 121.48 121.54 121.46s121.49-54.45 121.47-121.55v-.086c-.02-37.98-17.46-71.88-44.77-94.147z" sketchjs:uid="3" style="fill: #8B5D3B;"/>
<path d="M181.85 302.88v.002h-.013c-68.183-.009-123.46-55.265-123.48-123.45v-.13c0-38.24 17.394-72.431 44.691-95.079a75.843 75.843 0 0 1-.193-5.216c.002-43.632 35.37-79 79.001-79 43.628 0 78.997 35.37 78.999 79 0 1.766-.075 3.502-.192 5.216 27.287 22.638 44.678 56.81 44.69 95.038v.085l-.002.027.002.017c-.002 68.187-55.263 123.47-123.46 123.5l-.05-.01zm-.02 0v-.003zm.12-4c65.954-.056 119.39-53.541 119.39-119.5v-.128c-.015-37.361-17.167-70.691-44.025-92.601l1.265-1.55 1.993.155-1.993-.155-1.265 1.55a2 2 0 0 1-.729-1.707c.154-1.982.257-3.96.257-5.947-.002-20.717-8.392-39.454-21.968-53.034-13.58-13.579-32.32-21.971-53.03-21.971-20.717 0-39.456 8.39-53.034 21.965-13.58 13.581-21.97 32.318-21.97 53.035 0 1.989.101 3.967.257 5.945a2.008 2.008 0 0 1-.729 1.707c-26.87 21.921-44.025 55.271-44.025 92.644v.02h-.001l.001.024v.086c.021 65.98 53.519 119.46 119.5 119.45 0 .002 0 0 .054 0h.04z" sketchjs:uid="4" style="fill: #010101;"/>
<path d="M68.26 186.44s25.451 42.492-11.959 54.842C7.833 257.282 2 274.752 2 282.582c0 7.834 9.427 12.105 14 14 21.596 8.945 70.166 1.377 93.5 0 17.527-1.034 38-4.5 30-63.5" sketchjs:uid="5" style="fill: #8B5D3B;"/>
<path d="M15.234 298.43c-2.336-.973-5.989-2.56-9.18-5.044C2.892 290.935.007 287.369 0 282.582c-.023-4.425 1.729-11.382 9.577-19.017 7.842-7.655 21.684-16.118 46.096-24.182 7.601-2.519 12.265-6.215 15.119-10.434 2.848-4.224 3.921-9.083 3.923-14.066.021-10.163-4.597-20.608-6.914-25.101-.77-1.501-1.257-2.313-1.257-2.314v.002a1.999 1.999 0 1 1 3.43-2.057c.059.152 8.695 14.383 8.741 29.471.002 5.543-1.208 11.267-4.606 16.303-3.392 5.041-8.934 9.28-17.181 11.996-24.054 7.937-37.362 16.207-44.554 23.243-7.188 7.04-8.353 12.73-8.374 16.14-.009 3.047 1.821 5.533 4.515 7.649 2.666 2.088 6.012 3.58 8.25 4.503 7.292 3.04 18.396 4.159 30.598 4.145 21.738.004 46.946-3.402 62.02-4.293 7.377-.423 14.782-1.334 20.255-6.156 5.479-4.789 9.638-13.89 9.646-31.916 0-6.52-.548-14.182-1.765-23.161a2 2 0 1 1 3.963-.539c1.238 9.123 1.803 16.957 1.803 23.7.008 18.549-4.306 29.042-11.01 34.925-6.711 5.851-15.197 6.688-22.658 7.14-14.801.865-40.146 4.299-62.254 4.303-12.442-.02-23.87-1.05-32.122-4.45z" sketchjs:uid="6" style="fill: #010101;"/>
<g sketchjs:uid="7">
	<path d="M295.44 186.44s-25.451 42.492 11.96 54.842c48.467 16 54.301 33.466 54.301 41.299 0 7.834-9.429 12.105-14 14-21.597 8.945-70.166 1.377-93.498 0-17.524-1.034-37.995-4.5-29.996-63.5" sketchjs:uid="8" style="fill: #8B5D3B;"/>
	<path d="M254.08 298.58c-7.461-.452-15.944-1.288-22.655-7.14-6.704-5.88-11.02-16.375-11.011-34.925.002-6.741.565-14.576 1.807-23.698a1.998 1.998 0 1 1 3.963.535c-1.221 8.981-1.77 16.645-1.77 23.163.011 18.027 4.169 27.128 9.647 31.917 5.472 4.821 12.877 5.731 20.254 6.155 15.068.891 40.276 4.297 62.015 4.293 12.203.015 23.307-1.105 30.599-4.144 2.236-.923 5.585-2.418 8.251-4.503 2.693-2.115 4.523-4.603 4.515-7.649-.021-3.407-1.185-9.102-8.372-16.158-7.191-7.036-20.499-15.306-44.556-23.243-8.248-2.715-13.791-6.955-17.182-11.995-3.399-5.038-4.609-10.761-4.607-16.304.046-15.087 8.684-29.317 8.742-29.469a2 2 0 0 1 3.431 2.055c0 .002-.487.813-1.256 2.313a72.958 72.958 0 0 0-2.83 6.246c-2.062 5.175-4.093 12.085-4.087 18.854.004 4.981 1.076 9.844 3.923 14.066 2.855 4.219 7.52 7.916 15.12 10.436 24.412 8.063 38.255 16.526 46.096 24.181 7.848 7.635 9.602 14.591 9.579 19.018-.007 4.786-2.894 8.352-6.056 10.804-3.191 2.481-6.843 4.071-9.179 5.044-8.253 3.397-19.68 4.436-32.131 4.45-22.08.01-47.42-3.43-62.22-4.29z" sketchjs:uid="9" style="fill: #010101;"/>
</g>
<g sketchjs:uid="10">
	<circle cx="181.85" cy="121.03" r="18" sketchjs:uid="11" style="fill: #C49A6B;"/>
	<path d="M161.85 121.03c0-11.048 8.953-20 20-20v3.999c-8.837.017-15.984 7.164-16 16.001.016 8.834 7.164 15.984 16 15.999 8.834-.015 15.982-7.164 15.999-15.999-.017-8.837-7.164-15.984-15.999-16.001v-3.999c11.045 0 19.998 8.952 20 20-.002 11.045-8.954 19.998-20 20-11.04 0-20-8.95-20-20z" sketchjs:uid="12" style="fill: #010101;"/>
	<path d="M225.1 120c-.683 7.808-11.805 62.044-19.61 61.36-7.808-.682-9.343-56.026-8.66-63.834.683-7.807 7.565-13.582 15.373-12.899 7.82.68 13.59 7.57 12.9 15.37z" sketchjs:uid="13" style="fill: #FFF;"/>
	<path d="M205.41 183.36l-.091-.007c-1.937-.225-3.04-1.583-3.871-2.996-.843-1.472-1.504-3.321-2.104-5.524-1.188-4.395-2.083-10.188-2.77-16.468-1.37-12.553-1.887-26.991-1.889-35.227.002-2.621.05-4.588.154-5.785.74-8.428 7.803-14.779 16.112-14.781.468 0 .947.021 1.429.064 8.428.742 14.776 7.802 14.776 16.11 0 .473-.021.948-.062 1.419l-2-.15 1.992.176c-.494 5.45-5.355 30.122-10.936 46.86-1.878 5.58-3.775 10.222-5.842 13.165-1.197 1.62-2.47 3.064-4.678 3.164h-.22zm-6.59-65.65c-.085.93-.141 2.879-.141 5.431 0 6.847.37 18.224 1.306 29.042.907 10.779 2.505 21.191 4.549 25.46.448 1.008.946 1.554 1.127 1.702a1.49 1.49 0 0 0 .246-.161c.28-.213.694-.652 1.143-1.289.903-1.271 1.94-3.295 2.974-5.789 2.077-4.997 4.191-11.888 6.08-19.02 3.778-14.236 6.701-29.685 7.003-33.256.031-.369.047-.73.045-1.081.002-6.244-4.78-11.574-11.133-12.125a11.612 11.612 0 0 0-1.071-.048h-.004c-6.26 0-11.58 4.79-12.14 11.14z" sketchjs:uid="14" style="fill: #010101;"/>
	<g sketchjs:uid="15">
		<path d="M166.87 117.53c.682 7.808-.852 63.152-8.659 63.835s-18.93-53.554-19.612-61.361c-.684-7.807 5.092-14.689 12.899-15.373 7.81-.68 14.69 5.09 15.37 12.9z" sketchjs:uid="16" style="fill: #FFF;"/>
		<path d="M153.38 180.2c-1.191-1.689-2.298-3.914-3.403-6.568-2.197-5.297-4.334-12.295-6.253-19.531-3.834-14.509-6.744-29.743-7.121-33.929a16.39 16.39 0 0 1-.062-1.431c0-8.311 6.353-15.37 14.778-16.11a16.35 16.35 0 0 1 1.429-.064c8.311.002 15.37 6.353 16.112 14.78l-1.993.175-1.991.173c-.554-6.346-5.884-11.128-12.127-11.128-.354 0-.713.017-1.078.047-6.346.553-11.13 5.881-11.13 12.126 0 .354.017.715.049 1.082.254 3.005 2.396 14.616 5.341 26.7 2.92 12.091 6.779 24.967 10.106 30.427.838 1.449 1.715 2.266 1.989 2.391a.964.964 0 0 0 .072-.058c.154-.132.416-.443.69-.925.561-.965 1.168-2.568 1.708-4.578 1.095-4.029 1.981-9.693 2.653-15.856 1.348-12.334 1.865-26.715 1.863-34.792.002-2.549-.054-4.498-.136-5.435l1.991-.173 1.993-.175c.103 1.2.15 3.166.153 5.784-.006 10.817-.882 32.286-3.44 46.209-.872 4.664-1.865 8.448-3.318 11.011-.831 1.413-1.933 2.771-3.887 2.998a4.447 4.447 0 0 1-.305.015c-2.2-.11-3.48-1.56-4.68-3.18z" sketchjs:uid="17" style="fill: #010101;"/>
	</g>
	<g sketchjs:uid="18">
		<path d="M207.26 73.919h-50.804c-17.45 0-31.598 12.788-31.598 28.563s14.147 28.563 31.598 28.563c10.412 0 19.645-4.555 25.402-11.577 5.757 7.022 14.99 11.577 25.402 11.577 17.45 0 31.598-12.788 31.598-28.563s-14.15-28.561-31.6-28.561z" sketchjs:uid="19" style="fill: #A97C50;"/>
		<path d="M181.85 122.34c-6.167 6.515-15.272 10.603-25.402 10.605-18.358-.031-33.468-13.485-33.499-30.462.031-16.979 15.141-30.433 33.499-30.464h50.805v3.8h-50.805c-8.26-.002-15.706 3.027-21.068 7.875-5.364 4.854-8.628 11.479-8.63 18.789.002 7.307 3.267 13.932 8.628 18.786 5.364 4.848 12.81 7.877 21.07 7.875 9.856.002 18.552-4.314 23.933-10.881a1.902 1.902 0 0 1 2.94 0c5.378 6.566 14.077 10.883 23.933 10.881 8.257.002 15.706-3.027 21.067-7.875 5.363-4.854 8.626-11.479 8.628-18.786-.002-7.31-3.265-13.934-8.628-18.789-5.361-4.848-12.811-7.877-21.067-7.875v-3.8c18.355.031 33.468 13.485 33.496 30.464-.028 16.977-15.141 30.431-33.496 30.462-10.14.01-19.24-4.08-25.41-10.59z" sketchjs:uid="20" style="fill: #010101;"/>
	</g>
	<g sketchjs:uid="21">
		<path d="M232.17 46.36c0 11.299-9.159 20.459-20.459 20.459-11.299 0-20.459-9.16-20.459-20.459s9.16-20.459 20.459-20.459c11.31 0 20.46 9.16 20.46 20.459z" sketchjs:uid="22" style="fill: #FFF;"/>
		<path d="M189.26 46.36c.002-12.404 10.056-22.457 22.46-22.459 12.404.002 22.457 10.055 22.459 22.459-.002 12.405-10.055 22.458-22.459 22.459-12.41-.002-22.46-10.054-22.46-22.459zm4 0c.017 10.194 8.264 18.44 18.459 18.459 10.193-.019 18.44-8.266 18.457-18.459-.017-10.193-8.264-18.44-18.457-18.459-10.2.018-18.45 8.266-18.46 18.459z" sketchjs:uid="23" style="fill: #010101;"/>
		<g sketchjs:uid="24">
			<path d="M213.36 50.292a6.61 6.61 0 1 1-6.609-6.61 6.61 6.61 0 0 1 6.61 6.61z" sketchjs:uid="25" style="fill: #010101;"/>
		</g>
		<g sketchjs:uid="26">
			<path d="M172.45 46.36c0 11.299-9.16 20.459-20.459 20.459s-20.459-9.16-20.459-20.459 9.16-20.459 20.459-20.459c11.3 0 20.46 9.16 20.46 20.459z" sketchjs:uid="27" style="fill: #FFF;"/>
			<path d="M129.53 46.36c.002-12.405 10.056-22.459 22.459-22.459 12.405 0 22.459 10.054 22.459 22.459 0 12.403-10.054 22.457-22.459 22.459-12.4-.002-22.46-10.056-22.46-22.459zm4 0c.019 10.193 8.266 18.44 18.459 18.458 10.193-.019 18.44-8.265 18.459-18.458-.019-10.194-8.266-18.442-18.459-18.459-10.19.017-18.44 8.266-18.46 18.459z" sketchjs:uid="28" style="fill: #010101;"/>
			<g sketchjs:uid="29">
				<path d="M164.55 50.292a6.61 6.61 0 1 1-6.609-6.61 6.61 6.61 0 0 1 6.61 6.61z" sketchjs:uid="30" style="fill: #010101;"/>
			</g>
		</g>
	</g>
	<g sketchjs:uid="31">
		<path d="M115.38 135.83a1.997 1.997 0 0 1-1.836-2.15c1.426-18.033 16.706-31.638 34.75-31.634.942 0 1.891.037 2.846.113a2 2 0 0 1-.316 3.988 32.246 32.246 0 0 0-2.531-.101c-16.021.002-29.516 12.06-30.761 27.948a2 2 0 0 1-1.991 1.843c-.07 0-.12 0-.17-.01z" sketchjs:uid="32"/>
		<path d="M108.18 121.43a2.004 2.004 0 0 1-1.837-2.153c1.428-18.032 16.706-31.636 34.75-31.634.941 0 1.893.039 2.846.114a1.997 1.997 0 0 1 1.835 2.151 1.997 1.997 0 0 1-2.15 1.835 32.28 32.28 0 0 0-2.531-.1c-16.023.004-29.514 12.061-30.762 27.948a2.001 2.001 0 0 1-1.993 1.844c-.07.01-.12.01-.17 0zM122.57 150.23a1.996 1.996 0 0 1-1.835-2.151c1.427-18.033 16.707-31.637 34.751-31.633.942 0 1.891.037 2.845.113a1.998 1.998 0 0 1 1.835 2.151 1.998 1.998 0 0 1-2.151 1.835 32.687 32.687 0 0 0-2.529-.101c-16.022.004-29.516 12.061-30.764 27.95a1.999 1.999 0 0 1-1.99 1.842c-.07.01-.12 0-.18 0z" sketchjs:uid="33"/>
		<g sketchjs:uid="34">
			<path d="M246.17 134c-1.252-15.888-14.743-27.944-30.764-27.948-.836 0-1.679.033-2.531.1l.002.002a2.002 2.002 0 0 1-.316-3.989 36.267 36.267 0 0 1 2.846-.112c18.043-.004 33.319 13.602 34.751 31.633a1.999 1.999 0 0 1-1.996 2.157c-1.04 0-1.92-.8-2-1.84z" sketchjs:uid="35"/>
			<path d="M253.37 119.6c-1.25-15.889-14.742-27.945-30.762-27.949-.836 0-1.68.033-2.53.102a1.998 1.998 0 0 1-2.151-1.836 2 2 0 0 1 1.836-2.153 36.286 36.286 0 0 1 2.846-.112c18.042-.004 33.319 13.602 34.751 31.633a1.999 1.999 0 0 1-1.996 2.157c-1.04 0-1.92-.8-2-1.84zM238.97 148.39c-1.25-15.889-14.743-27.944-30.764-27.948-.837 0-1.68.033-2.528.102a2 2 0 1 1-.317-3.988 36.254 36.254 0 0 1 2.846-.114c18.044-.002 33.321 13.603 34.752 31.634a2 2 0 1 1-3.986.307z" sketchjs:uid="36"/>
		</g>
	</g>
</g>
<g sketchjs:uid="37">
	<path d="M120.38 269.44c-17.732-7.742-36.64-3.631-38.632.931-2.171 4.972 7.855 21.197 25.588 28.94 13.74 6 27.232 7.121 34.284 3.479.167 6.789 5.121 13.729 12.998 17.168 3.028 1.322 6.123 1.982 9.104 2.032-4.873-5.076-6.752-11.87-4.221-17.666s8.792-9.035 15.826-8.91a23.738 23.738 0 0 0-7.665-5.325c-7.877-3.439-16.343-2.338-21.44 2.163-2.12-7.63-12.1-16.8-25.84-22.8z" sketchjs:uid="38" style="fill: #B7BEC8;"/>
	<path d="M163.68 323.99c-3.251-.055-6.608-.775-9.87-2.199-7.452-3.266-12.599-9.446-13.888-16.149-2.58.838-5.556 1.227-8.819 1.231-7.204-.007-15.841-1.919-24.575-5.729-8.377-3.661-15.065-9.113-19.705-14.499-4.616-5.44-7.298-10.59-7.377-14.661.002-.826.126-1.642.459-2.411 1.195-2.428 3.692-3.641 7.015-4.759 3.346-1.052 7.642-1.704 12.493-1.708 6.621.002 14.271 1.234 21.759 4.503l-.801 1.832-.798 1.832c-6.904-3.017-14.032-4.167-20.16-4.165-4.482-.004-8.432.618-11.293 1.521-2.883.833-4.558 2.254-4.547 2.543-.057.126-.126.396-.126.812-.078 2.153 2.115 7.145 6.409 12.053 4.268 4.962 10.522 10.061 18.272 13.442 8.287 3.623 16.48 5.398 22.975 5.393 3.987.006 7.319-.678 9.593-1.857a2.002 2.002 0 0 1 2.916 1.728c.113 5.836 4.526 12.222 11.799 15.383a22.72 22.72 0 0 0 3.794 1.28c-1.818-2.991-2.835-6.3-2.838-9.641a15.417 15.417 0 0 1 1.294-6.239c2.284-5.212 7.102-8.524 12.719-9.668a22.145 22.145 0 0 0-3.526-1.936c-2.891-1.262-5.857-1.855-8.652-1.855-4.222 0-8.029 1.351-10.663 3.686a2.011 2.011 0 0 1-1.893.42 2.004 2.004 0 0 1-1.358-1.384c-1.715-6.579-11.311-15.734-24.715-21.515l.798-1.832.801-1.832c12.658 5.594 22.313 13.575 25.97 21.466 3.166-1.983 7.016-3.007 11.059-3.009 3.359.002 6.862.709 10.252 2.19a25.767 25.767 0 0 1 8.31 5.774c.564.589.713 1.459.379 2.203a2.004 2.004 0 0 1-1.899 1.181c-.082-.005-.187-.005-.316-.005-6.283.015-11.518 2.914-13.602 7.718a11.456 11.456 0 0 0-.958 4.637c-.006 3.686 1.686 7.612 4.788 10.841a2 2 0 0 1-1.444 3.386c.01.01 0 .01-.01.01z" sketchjs:uid="39" style="fill: #010101;"/>
	<path d="M98.342 265.16c4.522.96 9.414 2.483 14.383 4.653 16.883 7.371 28.171 18.898 25.188 25.729-2.982 6.828-19.104 6.383-35.987-.989a79.119 79.119 0 0 1-9.206-4.743c3.973 3.611 8.877 6.988 14.612 9.493 13.739 5.999 27.24 7.123 34.292 3.481.166 6.789 5.104 13.74 12.981 17.18 3.028 1.323 6.122 1.975 9.103 2.023-4.873-5.076-6.745-11.869-4.215-17.666 2.531-5.797 8.795-9.041 15.828-8.916-2.062-2.154-4.641-3.973-7.67-5.293-7.876-3.44-16.346-2.354-21.442 2.146-2.122-7.647-12.092-16.81-25.831-22.81-7.6-3.32-15.41-4.42-22.028-4.28z" sketchjs:uid="40" style="fill: #010101; opacity: 0.314;"/>
	<g sketchjs:uid="41">
		<path d="M100.87 272.56a3.504 3.504 0 0 1-.739 4.896 3.502 3.502 0 0 1-4.156-5.634 3.486 3.486 0 0 1 4.896.73z" sketchjs:uid="42" style="fill: #010101;"/>
	</g>
</g>
</svg>